<svg xmlns="http://www.w3.org/2000/svg" xmlns:xlink="http://www.w3.org/1999/xlink" version="1.1" x="0px" y="0px" viewBox="0 0 100 100" enable-background="new 0 0 100 100" xml:space="preserve">
  <path fill="#E1EBF4" d="m14.844 99.895c-0.78125-0.30859-1.4375-1.2031-1.6406-2.2227-0.48828-2.4766-0.86719-78.016-0.43359-86.848 0.29297-5.9805 0.79688-7.9141 2.1836-8.3438 0.33984-0.10547 1.1758-0.40234 1.8594-0.65625 1.5664-0.58594 3.4688-0.86719 7.6562-1.1172 5.6562-0.33984 19.793-0.65234 31.246-0.69141 10.129-0.035156 11.02-0.0078125 11.637 0.32812 0.36719 0.19922 0.78516 0.58984 0.92969 0.86719 0.14453 0.27734 0.84766 0.87891 1.5625 1.3398 0.71484 0.46094 2.8906 2.3984 4.8398 4.3047 3.8789 3.7969 10.969 11.176 11.848 12.324 0.71875 0.94531 0.88281 1.957 0.45312 2.8594-0.27344 0.58203-0.29688 0.94531-0.12891 2.1484 0.77344 5.4844 0.73438 71.586-0.042969 73.055-0.4375 0.82422-2.4336 2.1797-3.5312 2.4023-0.48047 0.097657-11.535 0.23438-24.57 0.30859-28.52 0.16016-35.305-0.027344-39.406-1.0664l-1.2266-0.3125-0.66406 0.64062c-0.66016 0.64062-1.8711 0.96094-2.5742 0.67969zm7.2422-4.4023c0.85547-0.12109 3.0898-0.3125 4.9648-0.42969 3.3281-0.20312 42.895-0.63672 50.875-0.55859l4.0039 0.039063-0.070313-7.4492c-0.10938-11.434-0.085937-57.852 0.03125-60.496l0.10156-2.3438-3.7266 0.023438c-4.2969 0.027344-8.5195-0.27734-9.9648-0.71094-0.63672-0.19141-1.3867-0.25781-2.0586-0.17969-1.2461 0.14453-1.8047-0.097657-2.3711-1.0234-0.36328-0.59375-0.40234-1.0625-0.40234-4.7969 0-4.6914 0.29297-9.2539 0.73047-11.367 0.16406-0.78906 0.27344-1.457 0.24609-1.4844-0.027343-0.027344-1.6328 0.03125-3.5664 0.12891-11.797 0.60547-38.469 0.96094-41.984 0.55859l-1.4258-0.16406 0.15234 1.3008c0.45312 3.8516 0.55469 11.27 0.65625 48.719l0.11328 41 1.0664-0.26953c0.58594-0.14844 1.7617-0.37109 2.6172-0.49219zm7.75-21.398c-1.9219-0.55469-2.6484-1.9102-1.8477-3.457 0.82422-1.5938 2.4531-1.7266 19.242-1.5664 7.2852 0.070313 14.316 0.21484 15.625 0.32031 1.3086 0.10547 3.7266 0.25781 5.3711 0.34375 2.7344 0.13672 3.0312 0.19141 3.4648 0.625 0.61719 0.61719 0.60156 1.418-0.035156 2.0547-0.42969 0.42969-0.70312 0.50781-1.8125 0.50781-0.71484 0-2.6055 0.13281-4.1992 0.29688-9.1172 0.93359-33.535 1.5312-35.812 0.875zm-0.41797-12.469c-0.94922-0.32812-1.3281-0.77344-1.3281-1.5742 0-0.73438 0.57422-1.3164 1.5898-1.6133 0.46875-0.13672 4.4414-0.30859 9.793-0.42969 4.9492-0.10937 12.789-0.33984 17.418-0.50781 13.645-0.5 14.031-0.47656 14.758 0.92578 0.70703 1.3672 0 2.9102-1.5117 3.2969-0.44922 0.11328-8.7969 0.19141-20.336 0.18359-15.789-0.007812-19.73-0.0625-20.383-0.28516zm6.9492-12.707c-4.1602-0.17969-5.9102-0.47266-6.7305-1.125-0.46484-0.37109-0.55078-0.56641-0.4375-1.0078 0.17969-0.71094 0.96094-1.1016 2.8555-1.4297 2.0859-0.36328 30.352-0.34766 34.91 0.015625 3.8477 0.30859 4.2305 0.37891 4.7773 0.88672 0.92187 0.85938 0.28516 2.1445-1.2344 2.5-1.1211 0.25781-28.816 0.39063-34.137 0.16016zm33.711-29.387c0.75-0.10938 3.1602-0.19922 5.3516-0.20312 2.1914-0.003906 3.9844-0.066406 3.9844-0.14062s-1.4297-1.543-3.1797-3.2578c-1.75-1.7188-4.3633-4.3711-5.8125-5.9023l-2.6328-2.7773 0.15234 1.0078c0.082032 0.55469 0.16016 3.4102 0.17188 6.3516 0.019531 4.4844 0.070313 5.3281 0.3125 5.2344 0.16016-0.0625 0.90234-0.19922 1.6562-0.30859z"/>
</svg>