<svg xmlns="http://www.w3.org/2000/svg" xmlns:xlink="http://www.w3.org/1999/xlink" version="1.1" x="0px" y="0px" viewBox="0 0 100 100" enable-background="new 0 0 100 100" xml:space="preserve">
  <path fill-rule="evenodd" clip-rule="evenodd" fill="#876108" d="M54.6,45.4c0.3,0.6,0.9,0.4,1.4,0.5c0.2,0,0.4,0.1,0.8,0.1c0.3,0,0.5-0.1,0.8-0.1  c1.2,0,2.5-0.1,3.7-0.1c1.2,0,2.3-0.1,3.5-0.1c0.9,0,1.9,0.1,2.8,0.1c0.6,0,0.8,0,1.3,0.1c0,0,0,0.1,0.1,0.1c0,0,0.1,0,0.1,0  c0.1,0,0.2,0.2,0.2,0.2c0.1,0,0.3,0,0.4,0c0.1,0,0.2,0.2,0.2,0.2c0,0,0.2,0,0.2,0c0.1,0.1,0.3,0.4,0.5,0.4c0.1,0,0.9,1.1,1.1,1.3  c0.1,0.1,0.2,0.3,0.2,0.5c0,0.1,0,0.2,0,0.2c0.1,0.5,0,1.2-0.2,1.8c-0.2,0.4-0.6,0.8-1,1.2c-0.1,0.1-0.2,0.2-0.2,0.2  c0,0-0.2,0-0.2,0c-0.1,0.1-0.1,0.1-0.2,0.1c-0.2,0-0.3,0.2-0.7,0.2c-0.1,0-0.5-0.1-0.6,0c-0.2,0.3-1.5,0-2.3,0  c-1.1,0-2.3,0.1-3.6,0.1c-0.9,0-1.9,0.1-2.8,0.1c-0.7,0-1.2,0-1.8,0.2c0,0,0,0.1-0.1,0.1c-0.1,0-0.1,0.1-0.2,0.1c-0.1,0-0.2,0-0.4,0  c-0.1,0-0.1,0.1-0.1,0.1c-0.6,0.1-1.2,0-1.8,0.1c0,0-0.1,0.1-0.1,0.1c-0.3,0.1-1,0.1-1.3,0.4c-0.2,1.3-0.1,2.6-0.2,4  c0,0.3-0.1,0.6-0.1,1c0,0.3,0,0.6,0,1c-0.1,0.6-0.2,1.2-0.2,1.8c0,0.6,0.2,1.3,0.2,2c0.1,1.6-0.1,3.1,0.1,4.4c0,0.1,0.1,0.2,0.1,0.4  c0,0.1,0,0.2,0,0.2c0.1,0.2,0.2,1.4,0.1,1.9c0,0-0.1,0-0.1,0.1c0,0.2-0.1,0.4-0.2,0.6c-0.3,0.6-0.9,1.1-1.4,1.6  c-0.5,0.1-0.9-0.1-1.4-0.1c-0.5,0-0.9,0.2-1.3,0.1c-0.5-0.1-0.8-0.5-1.2-0.7c-0.4-0.2-1-0.2-1.3-0.5c0-0.2-0.2-0.3-0.4-0.5  c-0.1-0.1,0-0.3-0.1-0.4c0,0-0.2-0.1-0.2-0.1c-0.2-0.4-0.2-1-0.4-1.6c-0.2-0.9-0.6-1.8-0.4-3.1c0-0.1,0.1-0.2,0.1-0.4  c0-0.6-0.1-1.1-0.1-1.9c0-0.8,0.2-1.5,0.1-2.3c0-0.6-0.2-1.1-0.4-1.7c0.4-1.7,0.6-4.1,0.4-6c-0.4-0.3-0.9-0.3-1.4-0.4  c-1.7-0.1-3.4,0.3-5.3,0.1c-0.7-0.1-1.4-0.3-2.2-0.4c-1.1-0.1-2.7,0.3-3.5-0.2c-0.2-0.1-0.8-0.2-1.2-0.4c-0.3-0.1-0.6-0.1-0.8-0.2  c-0.2-0.1-0.8-0.2-1.2-0.4c-0.1,0,0-0.1-0.1-0.1c-0.2,0-0.2-0.2-0.2-0.2c0,0-0.2,0-0.2,0c0-0.1-0.2-0.5-0.5-0.5  c-0.2,0-0.2-0.2-0.2-0.2c-0.1,0-0.2,0-0.2,0c-0.1-0.1-0.3-0.3-0.4-0.4c-0.1-0.1,0-0.3-0.1-0.5c0-0.1-0.2-0.1-0.2-0.1  c0,0,0-0.2,0-0.2c-0.1-0.1-0.4-0.8-0.2-1.4c0-0.1,0.1-0.1,0.1-0.1c0.1-0.3,0.1-0.7,0.2-1c0-0.1,0.2-0.1,0.2-0.1c0-0.1,0-0.2,0-0.2  c0,0,0.2-0.1,0.2-0.1c0-0.1,0-0.2,0-0.2c0.1-0.1,0.3-0.1,0.4-0.2c0.1-0.1,0.1-0.3,0.2-0.4c0.1-0.1,0.3,0,0.4,0c0,0,0-0.1,0.1-0.1  c0.3-0.1,0.5-0.1,1-0.2c0.1,0,0.1-0.1,0.1-0.1c0.3-0.1,0.6,0,1,0c0.1,0,0.2-0.1,0.4-0.1c0.5-0.1,1.1,0.1,1.7,0.1c0.2,0,0.4,0,0.6,0  c0.2,0,0.3,0.1,0.5,0.1c0.5,0,0.9-0.1,1.4-0.1c0.4,0,1,0,1.4,0c0.7,0,1.3,0.2,1.9,0.2c0.5,0,1.1-0.1,1.7,0c0.1,0,0.2,0.1,0.4,0.1  c0.7,0,1.5,0,2.2,0c0.7,0,1.3,0.2,1.9,0c0.4-0.2,0.4-0.8,0.5-1.3c0.2-1,0.1-2.1,0.2-3.2c0.1-0.5,0.2-0.9,0.2-1.4  c0.2-2.8-0.1-5.8,0.2-8.4c0.1-0.4,0.1-0.8,0.1-1.1c0,0,0.1-0.1,0.1-0.1c0.1-0.2,0-0.3,0.1-0.5c0-0.1,0.2-0.2,0.2-0.2  c0.1-0.1,0-0.2,0.1-0.4c0-0.1,0.2-0.2,0.2-0.2c0.1-0.1,0-0.2,0.1-0.4c0.1-0.1,0.2-0.2,0.2-0.2c0.1-0.2,0.2-0.5,0.4-0.6  c0,0,0.2,0,0.2,0c0,0,0-0.1,0-0.1c0,0,0.2,0,0.2,0c0.2-0.2,0.6-0.3,1.1-0.4c0.2-0.1,0.2,0,0.4-0.1c0.1-0.1,1.3,0,1.6,0.1  c0,0,0,0.1,0.1,0.1c0.2,0,0.3,0.2,0.5,0.2c0.2,0,0.5,0.3,0.7,0.5c0.1,0.1,0.2,0.3,0.4,0.4c0,0,0.2,0,0.2,0c0.1,0.1,0.1,0.3,0.4,0.4  c0.1,0,0.2,0.1,0.2,0.2c0.2,0.2,0.2,0.6,0.4,1c0,0,0,0.2,0,0.2c0.1,0.1,0.1,0.3,0.2,0.7c0.1,0.2,0.2,0.4,0.2,0.6  c0.1,1-0.1,2.5-0.1,3.5c0,0.4,0,0.7,0,1.1c-0.1,0.6-0.3,1.3-0.4,1.9c-0.1,0.9,0.1,1.7,0,2.5c-0.1,0.8-0.3,1.7-0.4,2.5  c-0.1,0.5-0.1,0.9-0.1,1.3c0,0.2-0.1,0.3-0.1,0.6C54.5,45.2,54.6,45.2,54.6,45.4z"/>
</svg>