<svg xmlns="http://www.w3.org/2000/svg" xmlns:xlink="http://www.w3.org/1999/xlink" version="1.1" x="0px" y="0px" viewBox="0 0 100 100" preserveAspectRatio="xMidYMid meet" xml:space="preserve">
  <path fill="#E1EBF4" d="M86,23.48c-1.41-1.86-2.97-3.59-4.65-5.2c-0.98-0.94-4.89,0.61-3.88,1.58C90.5,32.35,94.25,52.17,86.5,68.5
    c-6.72,14.15-21.25,23.45-36.97,22.97c-15.86-0.49-30.36-10.75-36.59-25.26c-2.18-5.07-3.26-10.46-3.35-15.84
    c0.15,0.38,0.72,0.56,1.21,0.56c4.45,0,8.9,0,13.34,0c0.15,3.55,0.42,7.1,0.84,10.62c0.28,2.33,0.63,4.66,1.04,6.97
    c-2.8,0.73-5.55,1.62-8.24,2.71c-0.62,0.25-1.65,1.01-1.09,1.76c0.56,0.74,2.1,0.36,2.77,0.09c2.28-0.93,4.61-1.68,6.98-2.3
    c0.85,4.34,1.94,8.64,3.26,12.86c0.61,1.94,4.77,0.81,4.16-1.12c-1.31-4.16-2.37-8.4-3.23-12.7c5.79-1.1,11.74-1.44,17.64-1.24
    c0.02,3.84,0.05,7.69,0.07,11.53c0.02,3.28,0.04,6.57,0.06,9.85c0.01,2.16,4.23,1.52,4.22-0.33c-0.04-6.94-0.08-13.89-0.12-20.83
    c5.6,0.41,11.18,1.25,16.66,2.49c-0.79,3.89-1.77,7.74-2.96,11.53c-0.72,2.3,3.43,2.27,3.99,0.49c1.14-3.63,2.11-7.32,2.92-11.06
    c0.67,0.17,1.34,0.35,2,0.53c1.48,0.41,2.96,0.84,4.4,1.35c1.4,0.5,4.87-1.53,2.52-2.36c-2.72-0.97-5.52-1.73-8.35-2.39
    c1.17-6.09,1.9-12.27,2.19-18.47c0.67,0,1.34,0,2.01,0c3.14,0,6.28,0,9.42,0c0.88,0,2.26-0.29,2.75-1.13
    c0.48-0.82-0.41-1.19-1.12-1.19c-4.32,0-8.63,0-12.95,0c0.17-5.6-0.03-11.21-0.58-16.78c2.12-0.62,4.22-1.34,6.27-2.17
    c0.76-0.31,1.57-1.24,1.01-2.05c-0.59-0.86-2.04-0.57-2.81-0.26c-1.56,0.63-3.15,1.19-4.76,1.68c-0.31-2.59-0.69-5.17-1.16-7.74
    c-0.26-1.45-0.53-2.9-0.9-4.33c-0.5-1.93-4.66-0.83-4.16,1.12c1.01,3.94,1.57,8.03,2.02,12.07c-6.08,1.39-12.38,1.88-18.62,1.76
    c-0.02-4.16-0.05-8.32-0.07-12.48c-0.02-3.28-0.04-6.57-0.06-9.85c0-0.5-0.24-0.84-0.59-1.06c4.86,0.29,9.67,1.46,14.12,3.44
    c2.18,0.97,4.27,2.12,6.25,3.45c0.79,0.53,1.91,0.31,2.74-0.03c0.31-0.13,1.91-1.04,1.14-1.55c-16.15-10.8-37.97-9.76-53.33,2.01
    C8.84,26.28,2.4,44.24,6.62,60.96c4.14,16.39,17.95,29.02,34.54,32.01c17.11,3.08,35.37-4.07,45.51-18.25
    C97.56,59.49,97.31,38.44,86,23.48z M37.24,66.51c-2.36,0.24-4.71,0.6-7.04,1.06c-0.99-5.49-1.6-11.05-1.87-16.63
    c2.78,0,5.56,0,8.34,0c3.84,0,7.67,0,11.51,0c0.03,5.04,0.06,10.09,0.09,15.13C44.58,66,40.9,66.13,37.24,66.51z M28.79,32.11
    c0.84,0.18,1.68,0.35,2.52,0.52c5.51,1.09,11.13,1.81,16.77,2.08c0,0.76,0.01,1.51,0.01,2.27c0.02,3.88,0.05,7.75,0.07,11.63
    c-6.64,0-13.29,0-19.93,0C28.07,43.1,28.26,37.58,28.79,32.11z M70.8,61.15c-0.3,2.47-0.67,4.93-1.11,7.38
    c-0.46-0.09-0.92-0.19-1.37-0.28c-5.22-1.02-10.52-1.72-15.84-2.03c-0.01-1.22-0.01-2.44-0.02-3.66c-0.02-3.88-0.05-7.75-0.07-11.63
    c6.41,0,12.82,0,19.22,0C71.47,54.35,71.21,57.76,70.8,61.15z M62.21,34.39c3.02-0.31,6.01-0.8,8.96-1.47
    c0.48,5.21,0.65,10.45,0.52,15.68c-2.88,0-5.77,0-8.65,0c-3.55,0-7.11,0-10.66,0c-0.03-4.59-0.05-9.18-0.08-13.78
    C55.61,34.86,58.92,34.73,62.21,34.39z M20.21,21.51c5.05-5.63,11.7-9.83,19.01-11.79c3.27-0.88,6.64-1.3,10-1.3
    C48.5,8.7,47.93,9.21,47.93,9.9c0.04,7.28,0.09,14.56,0.13,21.84c-0.08,0-0.16-0.01-0.24-0.01c-6.29-0.41-12.55-1.35-18.69-2.78
    c0.3-2.48,0.68-4.95,1.12-7.41c0.25-1.39,0.52-2.79,0.87-4.16c0.26-1.03-1.2-1.46-1.94-1.41c-1.04,0.07-2.02,0.67-2.29,1.71
    c-0.86,3.35-1.39,6.81-1.81,10.25c-0.28-0.08-0.57-0.15-0.85-0.23c-1.48-0.41-2.96-0.84-4.4-1.35c-0.95-0.34-2.29,0.02-2.94,0.79
    c-0.63,0.74-0.4,1.59,0.51,1.91c2.39,0.85,4.85,1.54,7.33,2.15c-0.59,5.78-0.81,11.6-0.67,17.42c-0.74,0-1.48,0-2.22,0
    c-3.14,0-6.28,0-9.42,0c-0.88,0-2.26,0.29-2.75,1.13c-0.05,0.08-0.07,0.15-0.09,0.23C9.51,39.65,13.15,29.39,20.21,21.51z"/>
</svg>